<svg xmlns="http://www.w3.org/2000/svg" xmlns:xlink="http://www.w3.org/1999/xlink" width="48" height="48" viewBox="0 0 48 48"><defs><filter id="a" x="0" y="0" width="48" height="48" filterUnits="userSpaceOnUse"><feOffset input="SourceAlpha"/><feGaussianBlur stdDeviation="3" result="b"/><feFlood flood-opacity="0.161"/><feComposite operator="in" in2="b"/><feComposite in="SourceGraphic"/></filter></defs><g transform="translate(-23 -153)"><g transform="matrix(1, 0, 0, 1, 23, 153)" filter="url(#a)"><path d="M6,0H24a6,6,0,0,1,6,6V24a6,6,0,0,1-6,6H6a6,6,0,0,1-6-6V6A6,6,0,0,1,6,0Z" transform="translate(9 9)" fill="#dff4ff"/></g><path d="M7.721,8.324l.557-3.7h-2.9L4.17,7.8a1.111,1.111,0,0,0-.057.352A1.648,1.648,0,0,0,5.924,9.557a1.718,1.718,0,0,0,1.8-1.232Zm2.73,1.232a1.648,1.648,0,0,0,1.811-1.408c0-.029,0-.058,0-.085L11.9,4.627H9L8.643,8.06c0,.029,0,.058,0,.088a1.648,1.648,0,0,0,1.811,1.408Zm3.521.737v2.784H6.93V10.3a2.963,2.963,0,0,1-1.006.175,2.9,2.9,0,0,1-.4-.035v4.471a.988.988,0,0,0,.984.986h7.889a.989.989,0,0,0,.986-.986v-4.47a3.026,3.026,0,0,1-.4.035A2.926,2.926,0,0,1,13.972,10.293Zm2.761-2.5L15.521,4.627h-2.9l.556,3.691a1.714,1.714,0,0,0,1.8,1.238,1.648,1.648,0,0,0,1.811-1.408A1.131,1.131,0,0,0,16.733,7.8Z" transform="translate(36.887 166.373)" fill="#0182c3"/></g></svg>